<?xml version="1.0" encoding="UTF-8"?><svg id="_圖層_2" xmlns="http://www.w3.org/2000/svg" viewBox="0 0 631.17 1313.74"><defs><style>.cls-1{fill:#c89c6c;}</style></defs><g id="_圖層_1-2"><g><g id="_圖層_1-2"><g><path class="cls-1" d="M571.67,916.47l-342.65,198.1-74.38-38.84,170.32-98.47h0l1.26-.73,12.36-7.15h0l1.27-.74,12.34-7.14h0l1.29-.75,12.33-7.13h0l1.3-.76,12.32-7.12h0l1.32-.76,12.3-7.11h0l1.33-.77,12.29-7.1h0l1.25-.73,12.37-7.15h0l1.27-.73,12.35-7.14h0l1.28-.74,121.22-70.09,.75-.43-.04-567.78L176.88,60.82l-1.47,2.61,101.23,57.07,7.88,784.98,.03,2.57,38.9,66.61-172.67,99.83-2.36,1.37,80.68,42.13,341.08-197.2,57.96,144.2-9.21,123.89-209.98,121.4L3,1083.54,3.6,41.82,69.02,3.46l20.82,11.71,1.47-2.61L68.99,0,.6,40.11,0,1084.42v.88l408.22,228.02,.74,.42,212.83-123.05,9.35-125.82,.03-.35-59.51-148.05h.01Zm-232.01,48.83l-38.9-66.61,11.03-6.37,38.9,66.61-11.03,6.37Zm13.62-7.88l-38.9-66.61,11.03-6.37,38.9,66.61-11.03,6.37Zm13.62-7.88l-38.9-66.61,11.03-6.37,38.9,66.61-11.03,6.37Zm13.62-7.88l-38.9-66.61,11.03-6.37,38.9,66.61-11.03,6.37Zm13.62-7.88l-38.9-66.61,11.02-6.37,38.9,66.61-11.02,6.37Zm13.62-7.88l-38.9-66.61,11.03-6.37,38.9,66.61-11.03,6.37Zm13.62-7.88l-38.9-66.61,11.03-6.37,38.9,66.61-11.03,6.37ZM279.66,122.21l274.49,154.76,.04,564.29-119.17,68.9-40.42-69.2-1.29,.76-105.81,61.17-7.84-780.68h0Zm7.48,784.35l11.02-6.37,38.9,66.61-11.03,6.37-38.9-66.61h.01Z"/><polygon class="cls-1" points="145.07 44.94 137.39 40.63 152.68 13.39 148.32 10.95 133.04 38.19 125.3 33.85 128.37 51.62 145.07 44.94"/></g></g><circle class="cls-1" cx="205.87" cy="1001.22" r="12.27"/><circle class="cls-1" cx="126.72" cy="309.37" r="12.27"/><circle class="cls-1" cx="248.43" cy="460.7" r="12.27"/><circle class="cls-1" cx="154.21" cy="383.79" r="12.27"/><circle class="cls-1" cx="248.43" cy="731.01" r="12.27"/><circle class="cls-1" cx="154.21" cy="663.82" r="12.27"/><circle class="cls-1" cx="205.87" cy="561.71" r="12.27"/><circle class="cls-1" cx="249.69" cy="852.92" r="12.27"/></g></g></svg>